# Blender v2.92.0 OBJ File: 'Tile1.blend'
# www.blender.org
mtllib Stump2.mtl
o Cube
v 1.200158 -4.124838 4.647272
v 1.238603 0.983843 4.230433
v 0.688951 -3.718737 -9.053519
v 0.923780 0.733056 -10.360670
v -1.663827 -3.725092 2.875335
v -1.669734 0.550574 2.405423
v -2.068106 -4.044036 -10.423739
v -2.101203 0.893925 -11.073745
v -2.361037 1.100914 -3.599897
v -0.486305 0.854866 3.687160
v 0.967493 -1.588008 3.576977
v -1.900671 -1.585899 -10.117549
v 1.287104 -1.593148 -11.347349
v -2.332702 -1.580080 4.921708
v -0.486305 -3.686664 -8.918419
v 1.276693 -4.187021 -3.075741
v -0.486305 0.564692 -9.614361
v -2.290299 -4.219527 -3.075741
v -0.486305 -3.666506 2.615636
v 1.173906 0.930816 -3.599897
v -0.486305 -4.391215 -3.075741
v -0.486305 -1.598406 -12.240100
v -1.422611 -1.587351 -3.337819
v -0.486305 1.226817 -3.599897
v 1.328677 -1.587351 -3.337819
v -0.486305 -1.576453 5.537817
vt 0.625000 0.500000
vt 0.750000 0.500000
vt 0.750000 0.625000
vt 0.625000 0.625000
vt 0.875000 0.500000
vt 0.875000 0.625000
vt 0.875000 0.750000
vt 0.750000 0.750000
vt 0.625000 0.750000
vt 0.375000 0.750000
vt 0.500000 0.750000
vt 0.500000 0.875000
vt 0.375000 0.875000
vt 0.625000 0.875000
vt 0.625000 1.000000
vt 0.500000 1.000000
vt 0.375000 1.000000
vt 0.375000 0.000000
vt 0.500000 0.000000
vt 0.500000 0.125000
vt 0.375000 0.125000
vt 0.625000 0.000000
vt 0.625000 0.125000
vt 0.625000 0.250000
vt 0.500000 0.250000
vt 0.375000 0.250000
vt 0.125000 0.500000
vt 0.250000 0.500000
vt 0.250000 0.625000
vt 0.125000 0.625000
vt 0.375000 0.500000
vt 0.375000 0.625000
vt 0.250000 0.750000
vt 0.125000 0.750000
vt 0.500000 0.500000
vt 0.500000 0.625000
vt 0.500000 0.375000
vt 0.375000 0.375000
vt 0.625000 0.375000
vn -0.1071 -0.9926 0.0576
vn -0.0285 -0.9940 0.1056
vn 0.0834 -0.9944 -0.0649
vn 0.0535 -0.9934 -0.1012
vn 0.0016 0.6270 -0.7790
vn 0.1429 -0.7989 -0.5843
vn -0.1081 -0.5467 -0.8303
vn -0.1667 0.3273 -0.9301
vn -0.9773 -0.2111 0.0180
vn -0.9798 0.1991 0.0202
vn -0.9985 0.0497 -0.0217
vn -0.9976 -0.0673 -0.0179
vn -0.1705 0.9823 0.0770
vn 0.0459 0.9987 0.0209
vn 0.0250 0.9974 -0.0676
vn 0.0841 0.9945 -0.0625
vn 0.9995 -0.0244 0.0202
vn 0.9986 0.0428 0.0297
vn 0.9855 -0.1625 -0.0497
vn 0.9938 0.1094 -0.0211
vn -0.4494 0.6510 0.6118
vn -0.0601 -0.7637 0.6428
vn -0.0768 -0.3738 0.9243
vn 0.3936 0.1937 0.8986
usemtl Material
s off
f 1/1/1 19/2/1 21/3/1 16/4/1
f 19/2/2 5/5/2 18/6/2 21/3/2
f 21/3/3 18/6/3 7/7/3 15/8/3
f 16/4/4 21/3/4 15/8/4 3/9/4
f 4/10/5 13/11/5 22/12/5 17/13/5
f 13/11/6 3/9/6 15/14/6 22/12/6
f 22/12/7 15/14/7 7/15/7 12/16/7
f 17/13/8 22/12/8 12/16/8 8/17/8
f 8/18/9 12/19/9 23/20/9 9/21/9
f 12/19/10 7/22/10 18/23/10 23/20/10
f 23/20/11 18/23/11 5/24/11 14/25/11
f 9/21/12 23/20/12 14/25/12 6/26/12
f 6/27/13 10/28/13 24/29/13 9/30/13
f 10/28/14 2/31/14 20/32/14 24/29/14
f 24/29/15 20/32/15 4/10/15 17/33/15
f 9/30/16 24/29/16 17/33/16 8/34/16
f 2/31/17 11/35/17 25/36/17 20/32/17
f 11/35/18 1/1/18 16/4/18 25/36/18
f 25/36/19 16/4/19 3/9/19 13/11/19
f 20/32/20 25/36/20 13/11/20 4/10/20
f 6/26/21 14/25/21 26/37/21 10/38/21
f 14/25/22 5/24/22 19/39/22 26/37/22
f 26/37/23 19/39/23 1/1/23 11/35/23
f 10/38/24 26/37/24 11/35/24 2/31/24
