# Blender v2.92.0 OBJ File: 'Tile1.blend'
# www.blender.org
mtllib Tile1.mtl
o Cube
v 15.446430 1.150411 6.676860
v -0.984980 1.238905 4.224311
v 15.228732 0.875400 -12.574450
v -0.552918 0.692852 -14.634830
v 15.255359 -2.199302 5.818349
v -0.772558 -2.268084 3.341622
v 15.204865 -2.139128 -12.475276
v -1.027647 -2.593805 -16.767859
v -1.077675 -2.652532 -6.143483
v -0.592303 -0.646708 2.592576
v 7.277926 0.678751 3.687639
v 7.257073 -1.940609 -13.144032
v 7.276269 1.267676 -15.268392
v 7.260136 -2.547207 5.656423
v 15.334929 -0.646708 -13.015738
v 15.086493 0.694289 -3.420951
v -0.974831 -0.646708 -16.530560
v 15.545826 -2.566996 -3.420951
v 15.038899 -0.646708 4.845751
v -0.909455 1.146965 -6.143484
v 15.502213 -0.646708 -3.420951
v 7.272113 -0.646708 -14.808193
v 7.267988 -1.770994 -4.782217
v -0.427617 -0.646708 -6.143483
v 7.267989 1.379227 -4.782217
v 7.252471 -0.646708 6.504027
vt 0.625000 0.500000
vt 0.750000 0.500000
vt 0.750000 0.625000
vt 0.625000 0.625000
vt 0.875000 0.500000
vt 0.875000 0.625000
vt 0.875000 0.750000
vt 0.750000 0.750000
vt 0.625000 0.750000
vt 0.375000 0.750000
vt 0.500000 0.750000
vt 0.500000 0.875000
vt 0.375000 0.875000
vt 0.625000 0.875000
vt 0.625000 1.000000
vt 0.500000 1.000000
vt 0.375000 1.000000
vt 0.375000 0.000000
vt 0.500000 0.000000
vt 0.500000 0.125000
vt 0.375000 0.125000
vt 0.625000 0.000000
vt 0.625000 0.125000
vt 0.625000 0.250000
vt 0.500000 0.250000
vt 0.375000 0.250000
vt 0.125000 0.500000
vt 0.250000 0.500000
vt 0.250000 0.625000
vt 0.125000 0.625000
vt 0.375000 0.500000
vt 0.375000 0.625000
vt 0.250000 0.750000
vt 0.125000 0.750000
vt 0.500000 0.500000
vt 0.500000 0.625000
vt 0.500000 0.375000
vt 0.375000 0.375000
vt 0.625000 0.375000
vn 1.0000 -0.0007 0.0056
vn 0.9954 0.0860 0.0411
vn 0.9992 -0.0297 -0.0279
vn 0.9838 0.1793 0.0004
vn 0.0478 0.3979 -0.9162
vn 0.2698 0.0027 -0.9629
vn 0.1117 -0.6202 -0.7765
vn 0.2973 -0.3899 -0.8715
vn 0.0901 -0.9959 0.0060
vn -0.0595 -0.9981 -0.0136
vn -0.0255 -0.9995 -0.0211
vn 0.0413 -0.9989 -0.0203
vn -0.9747 0.2237 0.0028
vn -0.9739 -0.2265 -0.0112
vn -0.9996 -0.0256 0.0107
vn -0.9845 0.1736 0.0238
vn 0.0183 0.9993 0.0323
vn 0.0098 0.9999 0.0130
vn 0.0671 0.9977 0.0040
vn -0.0489 0.9983 -0.0307
vn -0.3652 -0.0082 0.9309
vn 0.0934 0.0421 0.9947
vn -0.0881 0.3108 0.9464
vn -0.1834 0.3217 0.9289
usemtl Material
s off
f 1/1/1 19/2/1 21/3/1 16/4/1
f 19/2/2 5/5/2 18/6/2 21/3/2
f 21/3/3 18/6/3 7/7/3 15/8/3
f 16/4/4 21/3/4 15/8/4 3/9/4
f 4/10/5 13/11/5 22/12/5 17/13/5
f 13/11/6 3/9/6 15/14/6 22/12/6
f 22/12/7 15/14/7 7/15/7 12/16/7
f 17/13/8 22/12/8 12/16/8 8/17/8
f 8/18/9 12/19/9 23/20/9 9/21/9
f 12/19/10 7/22/10 18/23/10 23/20/10
f 23/20/11 18/23/11 5/24/11 14/25/11
f 9/21/12 23/20/12 14/25/12 6/26/12
f 6/27/13 10/28/13 24/29/13 9/30/13
f 10/28/14 2/31/14 20/32/14 24/29/14
f 24/29/15 20/32/15 4/10/15 17/33/15
f 9/30/16 24/29/16 17/33/16 8/34/16
f 2/31/17 11/35/17 25/36/17 20/32/17
f 11/35/18 1/1/18 16/4/18 25/36/18
f 25/36/19 16/4/19 3/9/19 13/11/19
f 20/32/20 25/36/20 13/11/20 4/10/20
f 6/26/21 14/25/21 26/37/21 10/38/21
f 14/25/22 5/24/22 19/39/22 26/37/22
f 26/37/23 19/39/23 1/1/23 11/35/23
f 10/38/24 26/37/24 11/35/24 2/31/24
